<svg id="Line" enable-background="new 0 0 32 32" height="512" viewBox="0 0 32 32" width="512" xmlns="http://www.w3.org/2000/svg"><path id="XMLID_32_" d="m30.263 14.105-11.707-11.086c-1.434-1.357-3.679-1.357-5.112 0l-11.679 11.061c-.708.618-.951 1.587-.62 2.47.331.881 1.151 1.45 2.09 1.45h.765v11c0 .552.448 1 1 1h22c.552 0 1-.448 1-1v-11h.764c.939 0 1.76-.57 2.09-1.452.331-.882.087-1.852-.591-2.443zm-17.263 13.895v-5c0-1.654 1.346-3 3-3s3 1.346 3 3v5zm15.764-12h-1.764c-.552 0-1 .448-1 1v11h-5v-5c0-2.757-2.243-5-5-5s-5 2.243-5 5v5h-5v-11c0-.552-.448-1-1-1h-1.765c-.199 0-.343-.249-.125-.441l11.709-11.088c.662-.627 1.7-.627 2.362 0l11.737 11.114c.164.142.063.415-.154.415z"/></svg>