<svg fill="none" height="512" viewBox="0 0 24 24" width="512" xmlns="http://www.w3.org/2000/svg"><g clip-rule="evenodd" fill="rgb(0,0,0)" fill-rule="evenodd"><path d="m18.1538 19.4571c.7081 0 1.2821-.5756 1.2821-1.2857v-2.0571c0-.4261.3444-.7714.7692-.7714.4249 0 .7693.3453.7693.7714v2.0571c0 1.5622-1.2628 2.8286-2.8206 2.8286h-2.0512c-.4249 0-.7693-.3454-.7693-.7714 0-.4261.3444-.7715.7693-.7715z"/><path d="m18.1538 4.54286c.7081 0 1.2821.57563 1.2821 1.28571v2.05714c0 .42605.3444.77143.7692.77143.4249 0 .7693-.34538.7693-.77143v-2.05714c0-1.56218-1.2628-2.82857-2.8206-2.82857h-2.0512c-.4249 0-.7693.34538-.7693.77143s.3444.77143.7693.77143z"/><path d="m5.84615 19.4571c-.70805 0-1.28205-.5756-1.28205-1.2857v-2.0571c0-.4261-.34439-.7714-.76923-.7714-.42483 0-.76923.3453-.76923.7714v2.0571c0 1.5622 1.26279 2.8286 2.82051 2.8286h2.05129c.42483 0 .76923-.3454.76923-.7714 0-.4261-.3444-.7715-.76923-.7715z"/><path d="m5.84615 4.54286c-.70805 0-1.28205.57563-1.28205 1.28571v2.05715c0 .42604-.34439.77142-.76923.77142-.42483 0-.76923-.34538-.76923-.77142v-2.05715c0-1.56217 1.26279-2.82857 2.82051-2.82857h2.05129c.42483 0 .76923.34538.76923.77143s-.3444.77143-.76923.77143z"/><path d="m22 12c0 .426-.3444.7714-.7692.7714h-18.46157c-.42483 0-.76923-.3454-.76923-.7714s.3444-.7714.76923-.7714h18.46157c.4248 0 .7692.3454.7692.7714z"/></g></svg>